<svg width="156.48mm" height="103.32mm" viewBox="0 0 156.48 103.32" xmlns="http://www.w3.org/2000/svg" version="1.1" preserveAspectRatio="xMidYMid meet"><g id="svgGroup" stroke-linecap="round" fill-rule="evenodd" font-size="9pt" stroke="#000" stroke-width="0.25mm" fill="none" style="stroke:#000;stroke-width:0.25mm;fill:none"><path d="M 6.41 103.273 L 6.41 100.82 L 11.238 100.82 L 11.285 100.773 L 11.285 97.457 L 11.238 97.41 L 10.035 97.41 L 10.035 95.32 L 11.238 95.32 L 11.285 95.273 L 11.285 93.07 L 13.875 93.07 L 13.875 95.273 L 13.922 95.32 L 15.125 95.32 L 15.125 97.41 L 13.922 97.41 L 13.875 97.457 L 13.875 100.773 L 13.922 100.82 L 18.75 100.82 L 18.75 103.273 L 18.797 103.32 L 31.363 103.32 L 31.41 103.273 L 31.41 100.82 L 36.238 100.82 L 36.285 100.773 L 36.285 97.457 L 36.238 97.41 L 35.035 97.41 L 35.035 95.32 L 36.238 95.32 L 36.285 95.273 L 36.285 93.07 L 38.875 93.07 L 38.875 95.273 L 38.922 95.32 L 40.125 95.32 L 40.125 97.41 L 38.922 97.41 L 38.875 97.457 L 38.875 100.773 L 38.922 100.82 L 43.75 100.82 L 43.75 103.273 L 43.797 103.32 L 50.113 103.32 L 50.16 103.273 L 50.16 96.957 L 50.113 96.91 L 47.66 96.91 L 47.66 92.082 L 47.613 92.035 L 44.297 92.035 L 44.25 92.082 L 44.25 93.285 L 42.16 93.285 L 42.16 92.082 L 42.113 92.035 L 39.91 92.035 L 39.91 89.445 L 42.113 89.445 L 42.16 89.398 L 42.16 88.195 L 44.25 88.195 L 44.25 89.398 L 44.297 89.445 L 47.613 89.445 L 47.66 89.398 L 47.66 84.57 L 50.113 84.57 L 50.16 84.523 L 50.16 71.957 L 50.113 71.91 L 47.66 71.91 L 47.66 67.082 L 47.613 67.035 L 44.297 67.035 L 44.25 67.082 L 44.25 68.285 L 42.16 68.285 L 42.16 67.082 L 42.113 67.035 L 39.91 67.035 L 39.91 64.445 L 42.113 64.445 L 42.16 64.398 L 42.16 63.195 L 44.25 63.195 L 44.25 64.398 L 44.297 64.445 L 47.613 64.445 L 47.66 64.398 L 47.66 59.57 L 50.113 59.57 L 50.16 59.523 L 50.16 53.207 L 50.113 53.16 L 43.797 53.16 L 43.75 53.207 L 43.75 55.66 L 38.922 55.66 L 38.875 55.707 L 38.875 59.023 L 38.922 59.07 L 40.125 59.07 L 40.125 61.16 L 38.922 61.16 L 38.875 61.207 L 38.875 63.41 L 36.285 63.41 L 36.285 61.207 L 36.238 61.16 L 35.035 61.16 L 35.035 59.07 L 36.238 59.07 L 36.285 59.023 L 36.285 55.707 L 36.238 55.66 L 31.41 55.66 L 31.41 53.207 L 31.363 53.16 L 18.797 53.16 L 18.75 53.207 L 18.75 55.66 L 13.922 55.66 L 13.875 55.707 L 13.875 59.023 L 13.922 59.07 L 15.125 59.07 L 15.125 61.16 L 13.922 61.16 L 13.875 61.207 L 13.875 63.41 L 11.285 63.41 L 11.285 61.207 L 11.238 61.16 L 10.035 61.16 L 10.035 59.07 L 11.238 59.07 L 11.285 59.023 L 11.285 55.707 L 11.238 55.66 L 6.41 55.66 L 6.41 53.207 L 6.363 53.16 L 0.047 53.16 L 0 53.207 L 0 59.523 L 0.047 59.57 L 2.5 59.57 L 2.5 64.398 L 2.547 64.445 L 5.863 64.445 L 5.91 64.398 L 5.91 63.195 L 8 63.195 L 8 64.398 L 8.047 64.445 L 10.25 64.445 L 10.25 67.035 L 8.047 67.035 L 8 67.082 L 8 68.285 L 5.91 68.285 L 5.91 67.082 L 5.863 67.035 L 2.547 67.035 L 2.5 67.082 L 2.5 71.91 L 0.047 71.91 L 0 71.957 L 0 84.523 L 0.047 84.57 L 2.5 84.57 L 2.5 89.398 L 2.547 89.445 L 5.863 89.445 L 5.91 89.398 L 5.91 88.195 L 8 88.195 L 8 89.398 L 8.047 89.445 L 10.25 89.445 L 10.25 92.035 L 8.047 92.035 L 8 92.082 L 8 93.285 L 5.91 93.285 L 5.91 92.082 L 5.863 92.035 L 2.547 92.035 L 2.5 92.082 L 2.5 96.91 L 0.047 96.91 L 0 96.957 L 0 103.273 L 0.047 103.32 L 6.363 103.32 L 6.41 103.273 Z" id="front_outsideCutPath" stroke="#FF0000" stroke-width="0.1" style="stroke:#FF0000;stroke-width:0.1" vector-effect="non-scaling-stroke"/><path d="M 32.391 82.029 L 31.578 82.029 L 31.578 78.556 A 2.299 2.299 0 0 0 31.551 78.195 Q 31.489 77.803 31.279 77.576 Q 31.037 77.314 30.574 77.265 A 2.156 2.156 0 0 0 30.343 77.253 Q 29.788 77.253 29.429 77.451 A 1.146 1.146 0 0 0 29.109 77.708 Q 28.751 78.125 28.72 79.036 A 5.209 5.209 0 0 0 28.717 79.212 L 28.717 82.029 L 27.904 82.029 L 27.904 76.66 L 28.565 76.66 L 28.697 77.395 L 28.737 77.395 A 1.647 1.647 0 0 1 29.382 76.808 A 1.98 1.98 0 0 1 29.437 76.78 A 2.202 2.202 0 0 1 30.221 76.571 A 2.662 2.662 0 0 1 30.441 76.562 Q 31.411 76.562 31.901 77.03 A 1.409 1.409 0 0 1 32.244 77.569 Q 32.327 77.791 32.363 78.066 A 3.549 3.549 0 0 1 32.391 78.526 L 32.391 82.029 Z M 16.77 76.66 L 16.77 77.292 L 15.403 77.292 L 15.403 82.029 L 14.59 82.029 L 14.59 77.292 L 13.63 77.292 L 13.63 76.925 L 14.59 76.631 L 14.59 76.332 Q 14.59 74.353 16.319 74.353 Q 16.745 74.353 17.318 74.524 L 17.108 75.176 Q 16.774 75.068 16.509 75.037 A 1.749 1.749 0 0 0 16.304 75.024 A 1.097 1.097 0 0 0 16.04 75.054 A 0.704 0.704 0 0 0 15.624 75.33 A 0.941 0.941 0 0 0 15.499 75.581 Q 15.417 75.826 15.405 76.19 A 3.839 3.839 0 0 0 15.403 76.312 L 15.403 76.66 L 16.77 76.66 Z M 36.53 81.358 L 36.53 81.98 Q 36.411 82.037 36.189 82.077 A 3.041 3.041 0 0 1 36.141 82.085 A 3.524 3.524 0 0 1 35.911 82.115 Q 35.803 82.125 35.705 82.127 A 2.084 2.084 0 0 1 35.678 82.127 A 2.124 2.124 0 0 1 35.052 82.043 Q 34.364 81.83 34.184 81.083 A 2.556 2.556 0 0 1 34.12 80.486 L 34.12 77.292 L 33.351 77.292 L 33.351 76.9 L 34.12 76.562 L 34.463 75.416 L 34.933 75.416 L 34.933 76.66 L 36.491 76.66 L 36.491 77.292 L 34.933 77.292 L 34.933 80.452 A 1.637 1.637 0 0 0 34.957 80.739 Q 35.007 81.02 35.163 81.196 A 0.755 0.755 0 0 0 35.628 81.443 A 1.087 1.087 0 0 0 35.795 81.456 Q 36.011 81.456 36.212 81.424 A 4.399 4.399 0 0 0 36.329 81.404 Q 36.441 81.383 36.519 81.361 A 1.219 1.219 0 0 0 36.53 81.358 Z M 20.84 76.621 L 20.728 77.375 Q 20.395 77.302 20.14 77.302 A 1.409 1.409 0 0 0 19.099 77.751 A 1.927 1.927 0 0 0 19.026 77.831 A 1.857 1.857 0 0 0 18.578 78.874 A 2.468 2.468 0 0 0 18.563 79.149 L 18.563 82.029 L 17.749 82.029 L 17.749 76.66 L 18.421 76.66 L 18.514 77.655 L 18.553 77.655 A 2.746 2.746 0 0 1 18.86 77.216 A 2.098 2.098 0 0 1 19.273 76.846 Q 19.694 76.562 20.199 76.562 A 3.733 3.733 0 0 1 20.533 76.576 A 2.725 2.725 0 0 1 20.84 76.621 Z M 26.404 80.157 A 4.2 4.2 0 0 0 26.479 79.34 A 4.773 4.773 0 0 0 26.477 79.21 Q 26.465 78.763 26.368 78.384 A 2.532 2.532 0 0 0 25.815 77.312 A 2.129 2.129 0 0 0 24.827 76.674 A 2.732 2.732 0 0 0 24.024 76.562 A 3.158 3.158 0 0 0 23.457 76.611 A 2.151 2.151 0 0 0 22.202 77.294 A 2.246 2.246 0 0 0 21.926 77.677 Q 21.714 78.048 21.62 78.523 A 4.222 4.222 0 0 0 21.546 79.34 A 4.068 4.068 0 0 0 21.597 79.998 A 3.008 3.008 0 0 0 21.849 80.819 A 2.673 2.673 0 0 0 21.909 80.935 A 2.201 2.201 0 0 0 22.712 81.789 A 2.264 2.264 0 0 0 23.231 82.02 A 2.611 2.611 0 0 0 23.99 82.127 A 3.158 3.158 0 0 0 24.541 82.081 A 2.168 2.168 0 0 0 25.817 81.39 A 2.268 2.268 0 0 0 26.087 81.019 Q 26.308 80.642 26.404 80.157 Z M 22.562 80.468 A 1.706 1.706 0 0 0 22.8 80.907 A 1.333 1.333 0 0 0 23.668 81.418 A 2.02 2.02 0 0 0 24.01 81.446 A 1.889 1.889 0 0 0 24.508 81.384 A 1.314 1.314 0 0 0 25.222 80.91 A 1.746 1.746 0 0 0 25.494 80.38 Q 25.574 80.135 25.609 79.837 A 4.283 4.283 0 0 0 25.636 79.34 A 4.057 4.057 0 0 0 25.598 78.761 Q 25.51 78.154 25.222 77.784 A 1.338 1.338 0 0 0 24.39 77.288 A 2.051 2.051 0 0 0 24 77.253 A 1.935 1.935 0 0 0 23.518 77.309 A 1.295 1.295 0 0 0 22.795 77.777 Q 22.388 78.301 22.388 79.34 Q 22.388 80.007 22.562 80.468 Z" id="front_labelLayer" stroke="#000000" fill="#000000" style="stroke:#000000;fill:#000000" vector-effect="non-scaling-stroke"/><path d="M 59.57 103.273 L 59.57 100.82 L 64.398 100.82 L 64.445 100.773 L 64.445 97.457 L 64.398 97.41 L 63.195 97.41 L 63.195 95.32 L 64.398 95.32 L 64.445 95.273 L 64.445 93.07 L 67.035 93.07 L 67.035 95.273 L 67.082 95.32 L 68.285 95.32 L 68.285 97.41 L 67.082 97.41 L 67.035 97.457 L 67.035 100.773 L 67.082 100.82 L 71.91 100.82 L 71.91 103.273 L 71.957 103.32 L 84.523 103.32 L 84.57 103.273 L 84.57 100.82 L 89.398 100.82 L 89.445 100.773 L 89.445 97.457 L 89.398 97.41 L 88.195 97.41 L 88.195 95.32 L 89.398 95.32 L 89.445 95.273 L 89.445 93.07 L 92.035 93.07 L 92.035 95.273 L 92.082 95.32 L 93.285 95.32 L 93.285 97.41 L 92.082 97.41 L 92.035 97.457 L 92.035 100.773 L 92.082 100.82 L 96.91 100.82 L 96.91 103.273 L 96.957 103.32 L 100.773 103.32 L 100.82 103.273 L 100.82 97.07 L 103.273 97.07 L 103.32 97.023 L 103.32 92.082 L 103.273 92.035 L 100.57 92.035 L 100.57 89.445 L 103.273 89.445 L 103.32 89.398 L 103.32 84.457 L 103.273 84.41 L 100.82 84.41 L 100.82 72.07 L 103.273 72.07 L 103.32 72.023 L 103.32 67.082 L 103.273 67.035 L 100.57 67.035 L 100.57 64.445 L 103.273 64.445 L 103.32 64.398 L 103.32 59.457 L 103.273 59.41 L 100.82 59.41 L 100.82 53.207 L 100.773 53.16 L 96.957 53.16 L 96.91 53.207 L 96.91 55.66 L 92.082 55.66 L 92.035 55.707 L 92.035 59.023 L 92.082 59.07 L 93.285 59.07 L 93.285 61.16 L 92.082 61.16 L 92.035 61.207 L 92.035 63.41 L 89.445 63.41 L 89.445 61.207 L 89.398 61.16 L 88.195 61.16 L 88.195 59.07 L 89.398 59.07 L 89.445 59.023 L 89.445 55.707 L 89.398 55.66 L 84.57 55.66 L 84.57 53.207 L 84.523 53.16 L 71.957 53.16 L 71.91 53.207 L 71.91 55.66 L 67.082 55.66 L 67.035 55.707 L 67.035 59.023 L 67.082 59.07 L 68.285 59.07 L 68.285 61.16 L 67.082 61.16 L 67.035 61.207 L 67.035 63.41 L 64.445 63.41 L 64.445 61.207 L 64.398 61.16 L 63.195 61.16 L 63.195 59.07 L 64.398 59.07 L 64.445 59.023 L 64.445 55.707 L 64.398 55.66 L 59.57 55.66 L 59.57 53.207 L 59.523 53.16 L 55.707 53.16 L 55.66 53.207 L 55.66 59.41 L 53.207 59.41 L 53.16 59.457 L 53.16 64.398 L 53.207 64.445 L 55.91 64.445 L 55.91 67.035 L 53.207 67.035 L 53.16 67.082 L 53.16 72.023 L 53.207 72.07 L 55.66 72.07 L 55.66 84.41 L 53.207 84.41 L 53.16 84.457 L 53.16 89.398 L 53.207 89.445 L 55.91 89.445 L 55.91 92.035 L 53.207 92.035 L 53.16 92.082 L 53.16 97.023 L 53.207 97.07 L 55.66 97.07 L 55.66 103.273 L 55.707 103.32 L 59.523 103.32 L 59.57 103.273 Z" id="left_outsideCutPath" stroke="#FF0000" stroke-width="0.1" style="stroke:#FF0000;stroke-width:0.1" vector-effect="non-scaling-stroke"/><path d="M 81.809 76.66 L 81.809 77.292 L 80.442 77.292 L 80.442 82.029 L 79.629 82.029 L 79.629 77.292 L 78.669 77.292 L 78.669 76.925 L 79.629 76.631 L 79.629 76.332 Q 79.629 74.353 81.358 74.353 Q 81.784 74.353 82.357 74.524 L 82.147 75.176 Q 81.812 75.068 81.548 75.037 A 1.749 1.749 0 0 0 81.343 75.024 A 1.097 1.097 0 0 0 81.079 75.054 A 0.704 0.704 0 0 0 80.662 75.33 A 0.941 0.941 0 0 0 80.538 75.581 Q 80.455 75.826 80.444 76.19 A 3.839 3.839 0 0 0 80.442 76.312 L 80.442 76.66 L 81.809 76.66 Z M 78.002 78.977 L 78.002 79.491 L 74.304 79.491 Q 74.329 80.437 74.782 80.927 A 1.478 1.478 0 0 0 75.558 81.364 A 2.239 2.239 0 0 0 76.058 81.417 A 4.295 4.295 0 0 0 77.666 81.098 A 4.922 4.922 0 0 0 77.772 81.054 L 77.772 81.779 A 4.882 4.882 0 0 1 77.327 81.947 A 3.733 3.733 0 0 1 76.957 82.046 A 3.414 3.414 0 0 1 76.618 82.098 Q 76.351 82.127 76.028 82.127 A 3.16 3.16 0 0 1 75.238 82.033 A 2.237 2.237 0 0 1 74.15 81.402 A 2.393 2.393 0 0 1 73.577 80.351 Q 73.462 79.917 73.462 79.389 A 4.27 4.27 0 0 1 73.541 78.542 Q 73.686 77.822 74.101 77.326 A 2.084 2.084 0 0 1 75.62 76.569 A 2.874 2.874 0 0 1 75.818 76.562 A 2.477 2.477 0 0 1 76.515 76.656 A 1.885 1.885 0 0 1 77.415 77.226 Q 78.002 77.89 78.002 78.977 Z M 85.257 81.358 L 85.257 81.98 Q 85.138 82.037 84.916 82.077 A 3.041 3.041 0 0 1 84.868 82.085 A 3.524 3.524 0 0 1 84.638 82.115 Q 84.529 82.125 84.432 82.127 A 2.084 2.084 0 0 1 84.405 82.127 A 2.124 2.124 0 0 1 83.779 82.043 Q 83.091 81.83 82.911 81.083 A 2.556 2.556 0 0 1 82.847 80.486 L 82.847 77.292 L 82.078 77.292 L 82.078 76.9 L 82.847 76.562 L 83.19 75.416 L 83.66 75.416 L 83.66 76.66 L 85.218 76.66 L 85.218 77.292 L 83.66 77.292 L 83.66 80.452 A 1.637 1.637 0 0 0 83.684 80.739 Q 83.734 81.02 83.89 81.196 A 0.755 0.755 0 0 0 84.355 81.443 A 1.087 1.087 0 0 0 84.522 81.456 Q 84.738 81.456 84.939 81.424 A 4.399 4.399 0 0 0 85.056 81.404 Q 85.168 81.383 85.246 81.361 A 1.219 1.219 0 0 0 85.257 81.358 Z M 72.036 74.407 L 72.036 82.029 L 71.223 82.029 L 71.223 74.407 L 72.036 74.407 Z M 74.324 78.83 L 77.131 78.83 A 2.771 2.771 0 0 0 77.097 78.385 Q 77.023 77.933 76.788 77.652 A 1.114 1.114 0 0 0 76.117 77.27 A 1.671 1.671 0 0 0 75.808 77.243 A 1.603 1.603 0 0 0 75.345 77.307 A 1.238 1.238 0 0 0 74.777 77.664 Q 74.429 78.045 74.34 78.691 A 3.072 3.072 0 0 0 74.324 78.83 Z" id="left_labelLayer" stroke="#000000" fill="#000000" style="stroke:#000000;fill:#000000" vector-effect="non-scaling-stroke"/><path d="M 117.605 103.273 L 117.605 100.57 L 120.195 100.57 L 120.195 103.273 L 120.242 103.32 L 125.183 103.32 L 125.23 103.273 L 125.23 100.82 L 137.57 100.82 L 137.57 103.273 L 137.617 103.32 L 142.558 103.32 L 142.605 103.273 L 142.605 100.57 L 145.195 100.57 L 145.195 103.273 L 145.242 103.32 L 150.183 103.32 L 150.23 103.273 L 150.23 100.82 L 153.933 100.82 L 153.98 100.773 L 153.98 97.07 L 156.433 97.07 L 156.48 97.023 L 156.48 92.082 L 156.433 92.035 L 153.73 92.035 L 153.73 89.445 L 156.433 89.445 L 156.48 89.398 L 156.48 84.457 L 156.433 84.41 L 153.98 84.41 L 153.98 72.07 L 156.433 72.07 L 156.48 72.023 L 156.48 67.082 L 156.433 67.035 L 153.73 67.035 L 153.73 64.445 L 156.433 64.445 L 156.48 64.398 L 156.48 59.457 L 156.433 59.41 L 153.98 59.41 L 153.98 55.707 L 153.933 55.66 L 150.23 55.66 L 150.23 53.207 L 150.183 53.16 L 145.242 53.16 L 145.195 53.207 L 145.195 55.91 L 142.605 55.91 L 142.605 53.207 L 142.558 53.16 L 137.617 53.16 L 137.57 53.207 L 137.57 55.66 L 125.23 55.66 L 125.23 53.207 L 125.183 53.16 L 120.242 53.16 L 120.195 53.207 L 120.195 55.91 L 117.605 55.91 L 117.605 53.207 L 117.558 53.16 L 112.617 53.16 L 112.57 53.207 L 112.57 55.66 L 108.867 55.66 L 108.82 55.707 L 108.82 59.41 L 106.367 59.41 L 106.32 59.457 L 106.32 64.398 L 106.367 64.445 L 109.07 64.445 L 109.07 67.035 L 106.367 67.035 L 106.32 67.082 L 106.32 72.023 L 106.367 72.07 L 108.82 72.07 L 108.82 84.41 L 106.367 84.41 L 106.32 84.457 L 106.32 89.398 L 106.367 89.445 L 109.07 89.445 L 109.07 92.035 L 106.367 92.035 L 106.32 92.082 L 106.32 97.023 L 106.367 97.07 L 108.82 97.07 L 108.82 100.773 L 108.867 100.82 L 112.57 100.82 L 112.57 103.273 L 112.617 103.32 L 117.558 103.32 L 117.605 103.273 Z" id="top_outsideCutPath" stroke="#FF0000" stroke-width="0.1" style="stroke:#FF0000;stroke-width:0.1" vector-effect="non-scaling-stroke"/><path d="M 135.005 79.651 L 134.946 79.651 A 7.695 7.695 0 0 1 134.997 80.219 A 6.448 6.448 0 0 1 135.005 80.542 L 135.005 82.751 L 134.192 82.751 L 134.192 74.973 L 134.853 74.973 L 134.966 75.708 L 135.005 75.708 A 2.189 2.189 0 0 1 135.322 75.348 A 1.693 1.693 0 0 1 135.735 75.071 A 2.036 2.036 0 0 1 136.319 74.9 A 2.636 2.636 0 0 1 136.69 74.875 A 2.492 2.492 0 0 1 137.394 74.969 A 1.842 1.842 0 0 1 138.339 75.605 A 2.442 2.442 0 0 1 138.755 76.418 Q 138.863 76.769 138.9 77.191 A 5.295 5.295 0 0 1 138.919 77.652 A 4.768 4.768 0 0 1 138.856 78.454 Q 138.783 78.882 138.625 79.225 A 2.286 2.286 0 0 1 138.329 79.707 A 1.925 1.925 0 0 1 136.961 80.426 A 2.758 2.758 0 0 1 136.69 80.439 A 2.466 2.466 0 0 1 136.071 80.364 A 2.146 2.146 0 0 1 135.733 80.246 Q 135.299 80.052 135.005 79.651 Z M 127.06 79.67 L 127.06 80.292 Q 126.94 80.35 126.719 80.39 A 3.041 3.041 0 0 1 126.671 80.398 A 3.524 3.524 0 0 1 126.441 80.428 Q 126.332 80.438 126.235 80.439 A 2.084 2.084 0 0 1 126.208 80.439 A 2.124 2.124 0 0 1 125.582 80.355 Q 124.894 80.143 124.714 79.396 A 2.556 2.556 0 0 1 124.65 78.798 L 124.65 75.605 L 123.881 75.605 L 123.881 75.213 L 124.65 74.875 L 124.993 73.729 L 125.463 73.729 L 125.463 74.973 L 127.021 74.973 L 127.021 75.605 L 125.463 75.605 L 125.463 78.764 A 1.637 1.637 0 0 0 125.487 79.052 Q 125.537 79.332 125.693 79.509 A 0.755 0.755 0 0 0 126.158 79.756 A 1.087 1.087 0 0 0 126.325 79.768 Q 126.541 79.768 126.742 79.736 A 4.399 4.399 0 0 0 126.859 79.716 Q 126.971 79.695 127.049 79.673 A 1.219 1.219 0 0 0 127.06 79.67 Z M 132.692 78.469 A 4.2 4.2 0 0 0 132.767 77.652 A 4.773 4.773 0 0 0 132.765 77.523 Q 132.753 77.076 132.656 76.697 A 2.532 2.532 0 0 0 132.103 75.624 A 2.129 2.129 0 0 0 131.115 74.987 A 2.732 2.732 0 0 0 130.313 74.875 A 3.158 3.158 0 0 0 129.745 74.923 A 2.151 2.151 0 0 0 128.49 75.607 A 2.246 2.246 0 0 0 128.214 75.99 Q 128.002 76.36 127.908 76.836 A 4.222 4.222 0 0 0 127.834 77.652 A 4.068 4.068 0 0 0 127.885 78.311 A 3.008 3.008 0 0 0 128.138 79.132 A 2.673 2.673 0 0 0 128.197 79.247 A 2.201 2.201 0 0 0 129 80.101 A 2.264 2.264 0 0 0 129.519 80.333 A 2.611 2.611 0 0 0 130.278 80.439 A 3.158 3.158 0 0 0 130.83 80.393 A 2.168 2.168 0 0 0 132.105 79.702 A 2.268 2.268 0 0 0 132.375 79.331 Q 132.596 78.954 132.692 78.469 Z M 128.85 78.781 A 1.706 1.706 0 0 0 129.088 79.22 A 1.333 1.333 0 0 0 129.956 79.731 A 2.02 2.02 0 0 0 130.298 79.759 A 1.889 1.889 0 0 0 130.796 79.697 A 1.314 1.314 0 0 0 131.51 79.222 A 1.746 1.746 0 0 0 131.782 78.693 Q 131.862 78.448 131.897 78.149 A 4.283 4.283 0 0 0 131.924 77.652 A 4.057 4.057 0 0 0 131.886 77.074 Q 131.798 76.466 131.51 76.097 A 1.338 1.338 0 0 0 130.679 75.601 A 2.051 2.051 0 0 0 130.288 75.565 A 1.935 1.935 0 0 0 129.806 75.622 A 1.295 1.295 0 0 0 129.083 76.09 Q 128.676 76.614 128.676 77.652 Q 128.676 78.32 128.85 78.781 Z M 135.005 77.471 L 135.005 77.652 Q 135.005 78.613 135.277 79.11 A 1.226 1.226 0 0 0 135.382 79.271 A 1.18 1.18 0 0 0 135.981 79.675 Q 136.247 79.759 136.592 79.759 A 1.37 1.37 0 0 0 137.125 79.658 Q 137.432 79.53 137.651 79.238 A 1.62 1.62 0 0 0 137.682 79.195 A 1.966 1.966 0 0 0 137.952 78.621 Q 138.03 78.357 138.059 78.041 A 4.332 4.332 0 0 0 138.077 77.642 A 4.103 4.103 0 0 0 138.038 77.06 Q 137.996 76.766 137.907 76.526 A 1.724 1.724 0 0 0 137.682 76.102 A 1.265 1.265 0 0 0 136.757 75.575 A 1.749 1.749 0 0 0 136.573 75.565 Q 135.75 75.565 135.382 76.021 Q 135.038 76.447 135.008 77.346 A 5.175 5.175 0 0 0 135.005 77.471 Z" id="top_labelLayer" stroke="#000000" fill="#000000" style="stroke:#000000;fill:#000000" vector-effect="non-scaling-stroke"/><path d="M 6.41 50.113 L 6.41 47.66 L 11.238 47.66 L 11.285 47.613 L 11.285 44.297 L 11.238 44.25 L 10.035 44.25 L 10.035 42.16 L 11.238 42.16 L 11.285 42.113 L 11.285 39.91 L 13.875 39.91 L 13.875 42.113 L 13.922 42.16 L 15.125 42.16 L 15.125 44.25 L 13.922 44.25 L 13.875 44.297 L 13.875 47.613 L 13.922 47.66 L 18.75 47.66 L 18.75 50.113 L 18.797 50.16 L 31.363 50.16 L 31.41 50.113 L 31.41 47.66 L 36.238 47.66 L 36.285 47.613 L 36.285 44.297 L 36.238 44.25 L 35.035 44.25 L 35.035 42.16 L 36.238 42.16 L 36.285 42.113 L 36.285 39.91 L 38.875 39.91 L 38.875 42.113 L 38.922 42.16 L 40.125 42.16 L 40.125 44.25 L 38.922 44.25 L 38.875 44.297 L 38.875 47.613 L 38.922 47.66 L 43.75 47.66 L 43.75 50.113 L 43.797 50.16 L 50.113 50.16 L 50.16 50.113 L 50.16 43.797 L 50.113 43.75 L 47.66 43.75 L 47.66 38.922 L 47.613 38.875 L 44.297 38.875 L 44.25 38.922 L 44.25 40.125 L 42.16 40.125 L 42.16 38.922 L 42.113 38.875 L 39.91 38.875 L 39.91 36.285 L 42.113 36.285 L 42.16 36.238 L 42.16 35.035 L 44.25 35.035 L 44.25 36.238 L 44.297 36.285 L 47.613 36.285 L 47.66 36.238 L 47.66 31.41 L 50.113 31.41 L 50.16 31.363 L 50.16 18.797 L 50.113 18.75 L 47.66 18.75 L 47.66 13.922 L 47.613 13.875 L 44.297 13.875 L 44.25 13.922 L 44.25 15.125 L 42.16 15.125 L 42.16 13.922 L 42.113 13.875 L 39.91 13.875 L 39.91 11.285 L 42.113 11.285 L 42.16 11.238 L 42.16 10.035 L 44.25 10.035 L 44.25 11.238 L 44.297 11.285 L 47.613 11.285 L 47.66 11.238 L 47.66 6.41 L 50.113 6.41 L 50.16 6.363 L 50.16 0.047 L 50.113 0 L 43.797 0 L 43.75 0.047 L 43.75 2.5 L 38.922 2.5 L 38.875 2.547 L 38.875 5.863 L 38.922 5.91 L 40.125 5.91 L 40.125 8 L 38.922 8 L 38.875 8.047 L 38.875 10.25 L 36.285 10.25 L 36.285 8.047 L 36.238 8 L 35.035 8 L 35.035 5.91 L 36.238 5.91 L 36.285 5.863 L 36.285 2.547 L 36.238 2.5 L 31.41 2.5 L 31.41 0.047 L 31.363 0 L 18.797 0 L 18.75 0.047 L 18.75 2.5 L 13.922 2.5 L 13.875 2.547 L 13.875 5.863 L 13.922 5.91 L 15.125 5.91 L 15.125 8 L 13.922 8 L 13.875 8.047 L 13.875 10.25 L 11.285 10.25 L 11.285 8.047 L 11.238 8 L 10.035 8 L 10.035 5.91 L 11.238 5.91 L 11.285 5.863 L 11.285 2.547 L 11.238 2.5 L 6.41 2.5 L 6.41 0.047 L 6.363 0 L 0.047 0 L 0 0.047 L 0 6.363 L 0.047 6.41 L 2.5 6.41 L 2.5 11.238 L 2.547 11.285 L 5.863 11.285 L 5.91 11.238 L 5.91 10.035 L 8 10.035 L 8 11.238 L 8.047 11.285 L 10.25 11.285 L 10.25 13.875 L 8.047 13.875 L 8 13.922 L 8 15.125 L 5.91 15.125 L 5.91 13.922 L 5.863 13.875 L 2.547 13.875 L 2.5 13.922 L 2.5 18.75 L 0.047 18.75 L 0 18.797 L 0 31.363 L 0.047 31.41 L 2.5 31.41 L 2.5 36.238 L 2.547 36.285 L 5.863 36.285 L 5.91 36.238 L 5.91 35.035 L 8 35.035 L 8 36.238 L 8.047 36.285 L 10.25 36.285 L 10.25 38.875 L 8.047 38.875 L 8 38.922 L 8 40.125 L 5.91 40.125 L 5.91 38.922 L 5.863 38.875 L 2.547 38.875 L 2.5 38.922 L 2.5 43.75 L 0.047 43.75 L 0 43.797 L 0 50.113 L 0.047 50.16 L 6.363 50.16 L 6.41 50.113 Z" id="back_outsideCutPath" stroke="#FF0000" stroke-width="0.1" style="stroke:#FF0000;stroke-width:0.1" vector-effect="non-scaling-stroke"/><path d="M 31.948 26.094 L 31.987 26.094 A 4.814 4.814 0 0 1 32.106 25.933 Q 32.305 25.674 32.628 25.31 L 34.363 23.473 L 35.328 23.473 L 33.153 25.761 L 35.479 28.842 L 34.495 28.842 L 32.599 26.305 L 31.987 26.834 L 31.987 28.842 L 31.183 28.842 L 31.183 21.22 L 31.987 21.22 L 31.987 25.261 A 5.419 5.419 0 0 1 31.984 25.414 Q 31.977 25.665 31.949 26.074 A 33.985 33.985 0 0 1 31.948 26.094 Z M 15.494 28.151 L 15.435 28.151 L 15.264 28.842 L 14.681 28.842 L 14.681 21.22 L 15.494 21.22 L 15.494 23.072 A 16.954 16.954 0 0 1 15.485 23.644 Q 15.475 23.915 15.457 24.156 A 10.134 10.134 0 0 1 15.455 24.188 L 15.494 24.188 A 1.849 1.849 0 0 1 16.843 23.405 A 2.777 2.777 0 0 1 17.179 23.385 A 2.485 2.485 0 0 1 17.878 23.478 A 1.86 1.86 0 0 1 18.822 24.108 Q 19.408 24.83 19.408 26.153 A 4.768 4.768 0 0 1 19.344 26.955 Q 19.271 27.382 19.114 27.725 A 2.286 2.286 0 0 1 18.817 28.208 A 1.925 1.925 0 0 1 17.449 28.927 A 2.758 2.758 0 0 1 17.179 28.94 A 2.466 2.466 0 0 1 16.559 28.864 A 2.146 2.146 0 0 1 16.221 28.746 Q 15.788 28.553 15.494 28.151 Z M 24.732 28.842 L 24.13 28.842 L 23.968 28.078 L 23.929 28.078 A 3.371 3.371 0 0 1 23.656 28.383 Q 23.392 28.643 23.128 28.761 A 1.875 1.875 0 0 1 22.741 28.883 Q 22.467 28.94 22.131 28.94 Q 21.492 28.94 21.075 28.677 A 1.4 1.4 0 0 1 20.88 28.528 A 1.337 1.337 0 0 1 20.476 27.824 A 2.046 2.046 0 0 1 20.426 27.358 A 1.407 1.407 0 0 1 21.227 26.03 Q 21.869 25.688 23.028 25.653 L 23.939 25.624 L 23.939 25.291 A 2.336 2.336 0 0 0 23.916 24.953 Q 23.891 24.78 23.837 24.642 A 0.907 0.907 0 0 0 23.667 24.357 A 0.825 0.825 0 0 0 23.329 24.137 Q 23.107 24.056 22.797 24.056 A 2.647 2.647 0 0 0 22.188 24.132 Q 21.909 24.198 21.604 24.322 A 5.446 5.446 0 0 0 21.279 24.468 L 21.029 23.846 A 3.749 3.749 0 0 1 21.753 23.548 A 4.268 4.268 0 0 1 21.898 23.508 A 3.766 3.766 0 0 1 22.846 23.385 A 3.434 3.434 0 0 1 23.369 23.422 Q 23.638 23.464 23.853 23.552 A 1.384 1.384 0 0 1 24.269 23.811 A 1.288 1.288 0 0 1 24.602 24.324 Q 24.679 24.534 24.711 24.796 A 3.2 3.2 0 0 1 24.732 25.178 L 24.732 28.842 Z M 29.988 23.654 L 29.738 24.345 A 3.617 3.617 0 0 0 29.346 24.215 A 4.32 4.32 0 0 0 29.151 24.166 A 3.359 3.359 0 0 0 28.895 24.119 Q 28.77 24.101 28.66 24.097 A 1.803 1.803 0 0 0 28.587 24.095 A 1.804 1.804 0 0 0 27.855 24.233 Q 27.087 24.571 26.972 25.742 A 4.493 4.493 0 0 0 26.951 26.182 Q 26.951 27.172 27.35 27.701 A 1.291 1.291 0 0 0 28.187 28.201 A 1.967 1.967 0 0 0 28.533 28.23 A 3.404 3.404 0 0 0 29.472 28.093 A 4.203 4.203 0 0 0 29.91 27.941 L 29.91 28.661 A 2.313 2.313 0 0 1 29.344 28.861 Q 28.988 28.94 28.553 28.94 A 3.039 3.039 0 0 1 27.814 28.855 A 2.061 2.061 0 0 1 26.748 28.222 A 2.352 2.352 0 0 1 26.259 27.324 Q 26.151 26.967 26.121 26.539 A 4.917 4.917 0 0 1 26.109 26.192 Q 26.109 24.845 26.758 24.11 A 2.105 2.105 0 0 1 27.911 23.447 A 3.192 3.192 0 0 1 28.607 23.375 A 3.669 3.669 0 0 1 29.381 23.459 A 4.059 4.059 0 0 1 29.606 23.513 Q 29.833 23.576 29.983 23.652 A 1.215 1.215 0 0 1 29.988 23.654 Z M 16.175 24.268 A 1.081 1.081 0 0 0 15.861 24.544 Q 15.494 25.021 15.494 26.153 Q 15.494 27.114 15.766 27.61 A 1.226 1.226 0 0 0 15.871 27.772 A 1.18 1.18 0 0 0 16.469 28.175 Q 16.736 28.259 17.081 28.259 Q 17.83 28.259 18.198 27.713 A 1.867 1.867 0 0 0 18.429 27.213 Q 18.565 26.767 18.565 26.143 Q 18.565 25.149 18.235 24.635 A 1.349 1.349 0 0 0 18.198 24.58 A 1.186 1.186 0 0 0 17.443 24.103 A 1.881 1.881 0 0 0 17.061 24.066 Q 16.52 24.066 16.175 24.268 Z M 23.919 26.687 L 23.919 26.202 L 23.106 26.236 A 5.971 5.971 0 0 0 22.629 26.271 Q 22.022 26.341 21.707 26.537 A 0.868 0.868 0 0 0 21.294 27.167 A 1.284 1.284 0 0 0 21.279 27.368 Q 21.279 27.808 21.546 28.039 A 0.885 0.885 0 0 0 21.877 28.215 Q 22.009 28.254 22.166 28.265 A 1.829 1.829 0 0 0 22.293 28.269 A 2.239 2.239 0 0 0 22.776 28.22 Q 23.113 28.145 23.362 27.958 A 1.358 1.358 0 0 0 23.486 27.852 A 1.362 1.362 0 0 0 23.865 27.172 Q 23.918 26.954 23.919 26.695 A 2.559 2.559 0 0 0 23.919 26.687 Z" id="back_labelLayer" stroke="#000000" fill="#000000" style="stroke:#000000;fill:#000000" vector-effect="non-scaling-stroke"/><path d="M 59.57 50.113 L 59.57 47.66 L 64.398 47.66 L 64.445 47.613 L 64.445 44.297 L 64.398 44.25 L 63.195 44.25 L 63.195 42.16 L 64.398 42.16 L 64.445 42.113 L 64.445 39.91 L 67.035 39.91 L 67.035 42.113 L 67.082 42.16 L 68.285 42.16 L 68.285 44.25 L 67.082 44.25 L 67.035 44.297 L 67.035 47.613 L 67.082 47.66 L 71.91 47.66 L 71.91 50.113 L 71.957 50.16 L 84.523 50.16 L 84.57 50.113 L 84.57 47.66 L 89.398 47.66 L 89.445 47.613 L 89.445 44.297 L 89.398 44.25 L 88.195 44.25 L 88.195 42.16 L 89.398 42.16 L 89.445 42.113 L 89.445 39.91 L 92.035 39.91 L 92.035 42.113 L 92.082 42.16 L 93.285 42.16 L 93.285 44.25 L 92.082 44.25 L 92.035 44.297 L 92.035 47.613 L 92.082 47.66 L 96.91 47.66 L 96.91 50.113 L 96.957 50.16 L 100.773 50.16 L 100.82 50.113 L 100.82 43.91 L 103.273 43.91 L 103.32 43.863 L 103.32 38.922 L 103.273 38.875 L 100.57 38.875 L 100.57 36.285 L 103.273 36.285 L 103.32 36.238 L 103.32 31.297 L 103.273 31.25 L 100.82 31.25 L 100.82 18.91 L 103.273 18.91 L 103.32 18.863 L 103.32 13.922 L 103.273 13.875 L 100.57 13.875 L 100.57 11.285 L 103.273 11.285 L 103.32 11.238 L 103.32 6.297 L 103.273 6.25 L 100.82 6.25 L 100.82 0.047 L 100.773 0 L 96.957 0 L 96.91 0.047 L 96.91 2.5 L 92.082 2.5 L 92.035 2.547 L 92.035 5.863 L 92.082 5.91 L 93.285 5.91 L 93.285 8 L 92.082 8 L 92.035 8.047 L 92.035 10.25 L 89.445 10.25 L 89.445 8.047 L 89.398 8 L 88.195 8 L 88.195 5.91 L 89.398 5.91 L 89.445 5.863 L 89.445 2.547 L 89.398 2.5 L 84.57 2.5 L 84.57 0.047 L 84.523 0 L 71.957 0 L 71.91 0.047 L 71.91 2.5 L 67.082 2.5 L 67.035 2.547 L 67.035 5.863 L 67.082 5.91 L 68.285 5.91 L 68.285 8 L 67.082 8 L 67.035 8.047 L 67.035 10.25 L 64.445 10.25 L 64.445 8.047 L 64.398 8 L 63.195 8 L 63.195 5.91 L 64.398 5.91 L 64.445 5.863 L 64.445 2.547 L 64.398 2.5 L 59.57 2.5 L 59.57 0.047 L 59.523 0 L 55.707 0 L 55.66 0.047 L 55.66 6.25 L 53.207 6.25 L 53.16 6.297 L 53.16 11.238 L 53.207 11.285 L 55.91 11.285 L 55.91 13.875 L 53.207 13.875 L 53.16 13.922 L 53.16 18.863 L 53.207 18.91 L 55.66 18.91 L 55.66 31.25 L 53.207 31.25 L 53.16 31.297 L 53.16 36.238 L 53.207 36.285 L 55.91 36.285 L 55.91 38.875 L 53.207 38.875 L 53.16 38.922 L 53.16 43.863 L 53.207 43.91 L 55.66 43.91 L 55.66 50.113 L 55.707 50.16 L 59.523 50.16 L 59.57 50.113 Z" id="right_outsideCutPath" stroke="#FF0000" stroke-width="0.1" style="stroke:#FF0000;stroke-width:0.1" vector-effect="non-scaling-stroke"/><path d="M 84.478 27.686 L 83.665 27.686 L 83.665 24.213 A 2.299 2.299 0 0 0 83.639 23.853 Q 83.576 23.461 83.366 23.233 Q 83.124 22.972 82.661 22.922 A 2.156 2.156 0 0 0 82.431 22.91 A 2.461 2.461 0 0 0 81.971 22.95 Q 81.716 22.999 81.519 23.106 A 1.138 1.138 0 0 0 81.194 23.37 A 1.353 1.353 0 0 0 80.964 23.777 Q 80.826 24.15 80.807 24.704 A 5.248 5.248 0 0 0 80.804 24.879 L 80.804 27.686 L 79.991 27.686 L 79.991 20.064 L 80.804 20.064 L 80.804 22.371 A 7.315 7.315 0 0 1 80.799 22.652 Q 80.794 22.784 80.784 22.897 A 3.181 3.181 0 0 1 80.765 23.062 L 80.814 23.062 A 1.625 1.625 0 0 1 81.383 22.514 A 1.985 1.985 0 0 1 81.497 22.452 A 2.087 2.087 0 0 1 82.183 22.249 A 2.639 2.639 0 0 1 82.509 22.229 A 3.299 3.299 0 0 1 83.063 22.273 Q 83.358 22.323 83.591 22.431 A 1.466 1.466 0 0 1 83.986 22.697 A 1.416 1.416 0 0 1 84.335 23.245 Q 84.478 23.634 84.478 24.184 L 84.478 27.686 Z M 77.033 22.317 L 78.889 22.317 L 78.889 22.832 L 77.895 22.949 A 1.321 1.321 0 0 1 78.009 23.119 Q 78.059 23.207 78.105 23.312 A 2.507 2.507 0 0 1 78.14 23.397 A 1.564 1.564 0 0 1 78.232 23.771 A 2.009 2.009 0 0 1 78.247 24.022 A 1.864 1.864 0 0 1 78.162 24.6 A 1.508 1.508 0 0 1 77.709 25.281 Q 77.17 25.751 76.229 25.751 A 2.613 2.613 0 0 1 75.927 25.734 A 2.207 2.207 0 0 1 75.779 25.712 A 1.447 1.447 0 0 0 75.545 25.863 Q 75.425 25.96 75.355 26.071 A 0.612 0.612 0 0 0 75.259 26.403 A 0.421 0.421 0 0 0 75.281 26.54 Q 75.32 26.654 75.43 26.722 A 0.451 0.451 0 0 0 75.441 26.728 A 0.57 0.57 0 0 0 75.567 26.78 Q 75.699 26.819 75.901 26.83 A 3.093 3.093 0 0 0 76.063 26.834 L 77.013 26.834 A 3.329 3.329 0 0 1 77.518 26.869 Q 77.783 26.91 77.996 26.997 A 1.469 1.469 0 0 1 78.353 27.201 A 1.19 1.19 0 0 1 78.795 27.959 A 1.787 1.787 0 0 1 78.82 28.269 A 1.761 1.761 0 0 1 78.72 28.878 Q 78.558 29.321 78.133 29.61 A 1.934 1.934 0 0 1 78.105 29.628 A 2.439 2.439 0 0 1 77.477 29.913 Q 77.167 30.007 76.789 30.053 A 6.445 6.445 0 0 1 76.019 30.096 A 4.556 4.556 0 0 1 75.407 30.058 Q 75.097 30.016 74.844 29.927 A 1.89 1.89 0 0 1 74.395 29.704 A 1.296 1.296 0 0 1 73.977 29.251 Q 73.843 29.003 73.826 28.688 A 1.717 1.717 0 0 1 73.824 28.597 Q 73.824 28.107 74.138 27.75 A 1.42 1.42 0 0 1 74.625 27.394 A 2.012 2.012 0 0 1 75.019 27.265 Q 74.814 27.172 74.674 26.976 A 0.754 0.754 0 0 1 74.536 26.568 A 0.934 0.934 0 0 1 74.534 26.52 A 0.93 0.93 0 0 1 74.581 26.221 A 0.824 0.824 0 0 1 74.691 26.006 Q 74.81 25.839 75.031 25.681 A 2.554 2.554 0 0 1 75.186 25.58 A 1.426 1.426 0 0 1 74.567 25.084 A 1.767 1.767 0 0 1 74.507 24.997 A 1.681 1.681 0 0 1 74.249 24.187 A 2.052 2.052 0 0 1 74.245 24.056 A 2.349 2.349 0 0 1 74.307 23.501 A 1.546 1.546 0 0 1 74.774 22.697 A 1.727 1.727 0 0 1 75.437 22.331 Q 75.7 22.251 76.017 22.228 A 3.591 3.591 0 0 1 76.273 22.219 A 3.117 3.117 0 0 1 76.686 22.245 A 2.374 2.374 0 0 1 77.033 22.317 Z M 88.617 27.015 L 88.617 27.637 Q 88.498 27.694 88.276 27.734 A 3.041 3.041 0 0 1 88.228 27.742 A 3.524 3.524 0 0 1 87.998 27.772 Q 87.89 27.782 87.793 27.784 A 2.084 2.084 0 0 1 87.765 27.784 A 2.124 2.124 0 0 1 87.139 27.7 Q 86.451 27.487 86.271 26.74 A 2.556 2.556 0 0 1 86.207 26.143 L 86.207 22.949 L 85.438 22.949 L 85.438 22.557 L 86.207 22.219 L 86.55 21.073 L 87.02 21.073 L 87.02 22.317 L 88.578 22.317 L 88.578 22.949 L 87.02 22.949 L 87.02 26.109 A 1.637 1.637 0 0 0 87.044 26.396 Q 87.094 26.677 87.251 26.853 A 0.755 0.755 0 0 0 87.715 27.1 A 1.087 1.087 0 0 0 87.883 27.113 Q 88.098 27.113 88.299 27.081 A 4.399 4.399 0 0 0 88.416 27.061 Q 88.529 27.04 88.606 27.018 A 1.219 1.219 0 0 0 88.617 27.015 Z M 70.954 22.278 L 70.841 23.032 Q 70.508 22.959 70.253 22.959 A 1.409 1.409 0 0 0 69.212 23.409 A 1.927 1.927 0 0 0 69.139 23.488 A 1.857 1.857 0 0 0 68.691 24.531 A 2.468 2.468 0 0 0 68.676 24.806 L 68.676 27.686 L 67.863 27.686 L 67.863 22.317 L 68.534 22.317 L 68.627 23.312 L 68.666 23.312 A 2.746 2.746 0 0 1 68.973 22.873 A 2.098 2.098 0 0 1 69.386 22.503 Q 69.807 22.219 70.312 22.219 A 3.733 3.733 0 0 1 70.646 22.234 A 2.725 2.725 0 0 1 70.954 22.278 Z M 72.771 22.317 L 72.771 27.686 L 71.958 27.686 L 71.958 22.317 L 72.771 22.317 Z M 76.753 27.563 L 75.779 27.563 Q 75.225 27.563 74.916 27.828 A 0.857 0.857 0 0 0 74.635 28.314 A 1.301 1.301 0 0 0 74.608 28.587 Q 74.608 29.023 74.975 29.249 A 1.302 1.302 0 0 0 75.296 29.386 Q 75.6 29.474 76.028 29.474 A 5.466 5.466 0 0 0 76.562 29.45 Q 77.191 29.388 77.544 29.168 A 1.186 1.186 0 0 0 77.82 28.937 A 0.889 0.889 0 0 0 78.037 28.337 A 1.1 1.1 0 0 0 78.017 28.119 Q 77.991 27.993 77.933 27.9 A 0.513 0.513 0 0 0 77.767 27.732 A 0.771 0.771 0 0 0 77.584 27.653 Q 77.389 27.593 77.081 27.573 A 5.174 5.174 0 0 0 76.753 27.563 Z M 75.049 24.037 Q 75.049 24.6 75.367 24.889 A 1.051 1.051 0 0 0 75.79 25.119 Q 75.951 25.165 76.143 25.175 A 2.094 2.094 0 0 0 76.254 25.178 A 1.771 1.771 0 0 0 76.717 25.123 Q 77.444 24.925 77.444 24.022 A 1.748 1.748 0 0 0 77.384 23.543 Q 77.231 23.006 76.685 22.864 A 1.769 1.769 0 0 0 76.239 22.812 A 1.706 1.706 0 0 0 75.891 22.845 Q 75.565 22.913 75.357 23.121 A 0.976 0.976 0 0 0 75.121 23.518 Q 75.071 23.672 75.056 23.86 A 2.139 2.139 0 0 0 75.049 24.037 Z M 71.901 20.713 A 0.901 0.901 0 0 0 71.889 20.862 A 0.96 0.96 0 0 0 71.893 20.954 Q 71.901 21.036 71.924 21.103 A 0.42 0.42 0 0 0 72.026 21.271 A 0.456 0.456 0 0 0 72.191 21.377 A 0.517 0.517 0 0 0 72.369 21.406 Q 72.565 21.406 72.707 21.271 A 0.397 0.397 0 0 0 72.785 21.169 Q 72.82 21.102 72.836 21.017 A 0.841 0.841 0 0 0 72.849 20.862 A 0.93 0.93 0 0 0 72.845 20.774 Q 72.825 20.566 72.707 20.456 Q 72.565 20.324 72.369 20.324 A 0.621 0.621 0 0 0 72.328 20.325 A 0.47 0.47 0 0 0 72.026 20.453 A 0.38 0.38 0 0 0 71.942 20.573 Q 71.914 20.635 71.901 20.713 Z" id="right_labelLayer" stroke="#000000" fill="#000000" style="stroke:#000000;fill:#000000" vector-effect="non-scaling-stroke"/><path d="M 117.605 50.113 L 117.605 47.41 L 120.195 47.41 L 120.195 50.113 L 120.242 50.16 L 125.183 50.16 L 125.23 50.113 L 125.23 47.66 L 137.57 47.66 L 137.57 50.113 L 137.617 50.16 L 142.558 50.16 L 142.605 50.113 L 142.605 47.41 L 145.195 47.41 L 145.195 50.113 L 145.242 50.16 L 150.183 50.16 L 150.23 50.113 L 150.23 47.66 L 153.933 47.66 L 153.98 47.613 L 153.98 43.91 L 156.433 43.91 L 156.48 43.863 L 156.48 38.922 L 156.433 38.875 L 153.73 38.875 L 153.73 36.285 L 156.433 36.285 L 156.48 36.238 L 156.48 31.297 L 156.433 31.25 L 153.98 31.25 L 153.98 18.91 L 156.433 18.91 L 156.48 18.863 L 156.48 13.922 L 156.433 13.875 L 153.73 13.875 L 153.73 11.285 L 156.433 11.285 L 156.48 11.238 L 156.48 6.297 L 156.433 6.25 L 153.98 6.25 L 153.98 2.547 L 153.933 2.5 L 150.23 2.5 L 150.23 0.047 L 150.183 0 L 145.242 0 L 145.195 0.047 L 145.195 2.75 L 142.605 2.75 L 142.605 0.047 L 142.558 0 L 137.617 0 L 137.57 0.047 L 137.57 2.5 L 125.23 2.5 L 125.23 0.047 L 125.183 0 L 120.242 0 L 120.195 0.047 L 120.195 2.75 L 117.605 2.75 L 117.605 0.047 L 117.558 0 L 112.617 0 L 112.57 0.047 L 112.57 2.5 L 108.867 2.5 L 108.82 2.547 L 108.82 6.25 L 106.367 6.25 L 106.32 6.297 L 106.32 11.238 L 106.367 11.285 L 109.07 11.285 L 109.07 13.875 L 106.367 13.875 L 106.32 13.922 L 106.32 18.863 L 106.367 18.91 L 108.82 18.91 L 108.82 31.25 L 106.367 31.25 L 106.32 31.297 L 106.32 36.238 L 106.367 36.285 L 109.07 36.285 L 109.07 38.875 L 106.367 38.875 L 106.32 38.922 L 106.32 43.863 L 106.367 43.91 L 108.82 43.91 L 108.82 47.613 L 108.867 47.66 L 112.57 47.66 L 112.57 50.113 L 112.617 50.16 L 117.558 50.16 L 117.605 50.113 Z" id="bottom_outsideCutPath" stroke="#FF0000" stroke-width="0.1" style="stroke:#FF0000;stroke-width:0.1" vector-effect="non-scaling-stroke"/><path d="M 147.903 28.842 L 147.09 28.842 L 147.09 25.349 A 2.399 2.399 0 0 0 147.065 24.997 Q 147.039 24.816 146.982 24.671 A 0.983 0.983 0 0 0 146.815 24.387 A 0.856 0.856 0 0 0 146.418 24.13 Q 146.276 24.084 146.103 24.071 A 1.888 1.888 0 0 0 145.963 24.066 Q 145.204 24.066 144.841 24.502 A 1.344 1.344 0 0 0 144.613 24.914 Q 144.48 25.289 144.479 25.836 A 4.58 4.58 0 0 0 144.479 25.844 L 144.479 28.842 L 143.666 28.842 L 143.666 25.349 A 2.399 2.399 0 0 0 143.641 24.997 Q 143.615 24.816 143.558 24.671 A 0.983 0.983 0 0 0 143.391 24.387 Q 143.154 24.109 142.685 24.072 A 1.904 1.904 0 0 0 142.534 24.066 A 2.02 2.02 0 0 0 142.116 24.106 Q 141.859 24.161 141.667 24.289 A 1.066 1.066 0 0 0 141.415 24.524 A 1.364 1.364 0 0 0 141.213 24.908 Q 141.06 25.341 141.06 26.025 L 141.06 28.842 L 140.247 28.842 L 140.247 23.473 L 140.908 23.473 L 141.04 24.208 L 141.079 24.208 Q 141.31 23.816 141.728 23.596 A 1.931 1.931 0 0 1 142.491 23.382 A 2.332 2.332 0 0 1 142.666 23.375 Q 143.446 23.375 143.891 23.725 A 1.388 1.388 0 0 1 144.312 24.286 L 144.351 24.286 A 1.698 1.698 0 0 1 144.991 23.651 A 2.04 2.04 0 0 1 145.047 23.62 A 2.058 2.058 0 0 1 145.802 23.391 A 2.566 2.566 0 0 1 146.085 23.375 Q 146.997 23.375 147.45 23.843 A 1.4 1.4 0 0 1 147.75 24.335 Q 147.903 24.743 147.903 25.339 L 147.903 28.842 Z M 115.71 28.151 L 115.651 28.151 L 115.48 28.842 L 114.897 28.842 L 114.897 21.22 L 115.71 21.22 L 115.71 23.072 A 16.954 16.954 0 0 1 115.701 23.644 Q 115.692 23.915 115.674 24.156 A 10.134 10.134 0 0 1 115.671 24.188 L 115.71 24.188 A 1.849 1.849 0 0 1 117.06 23.405 A 2.777 2.777 0 0 1 117.395 23.385 A 2.485 2.485 0 0 1 118.095 23.478 A 1.86 1.86 0 0 1 119.039 24.108 Q 119.624 24.83 119.624 26.153 A 4.768 4.768 0 0 1 119.561 26.955 Q 119.488 27.382 119.33 27.725 A 2.286 2.286 0 0 1 119.034 28.208 A 1.925 1.925 0 0 1 117.666 28.927 A 2.758 2.758 0 0 1 117.395 28.94 A 2.466 2.466 0 0 1 116.776 28.864 A 2.146 2.146 0 0 1 116.438 28.746 Q 116.004 28.553 115.71 28.151 Z M 129.573 28.171 L 129.573 28.793 Q 129.453 28.85 129.232 28.89 A 3.041 3.041 0 0 1 129.183 28.898 A 3.524 3.524 0 0 1 128.954 28.928 Q 128.845 28.938 128.748 28.94 A 2.084 2.084 0 0 1 128.721 28.94 A 2.124 2.124 0 0 1 128.095 28.856 Q 127.407 28.643 127.227 27.896 A 2.556 2.556 0 0 1 127.163 27.299 L 127.163 24.105 L 126.394 24.105 L 126.394 23.713 L 127.163 23.375 L 127.506 22.229 L 127.976 22.229 L 127.976 23.473 L 129.534 23.473 L 129.534 24.105 L 127.976 24.105 L 127.976 27.265 A 1.637 1.637 0 0 0 128 27.552 Q 128.05 27.833 128.206 28.009 A 0.755 0.755 0 0 0 128.671 28.256 A 1.087 1.087 0 0 0 128.838 28.269 Q 129.054 28.269 129.254 28.237 A 4.399 4.399 0 0 0 129.372 28.217 Q 129.484 28.196 129.562 28.174 A 1.219 1.219 0 0 0 129.573 28.171 Z M 133.114 28.171 L 133.114 28.793 Q 132.995 28.85 132.774 28.89 A 3.041 3.041 0 0 1 132.725 28.898 A 3.524 3.524 0 0 1 132.495 28.928 Q 132.387 28.938 132.29 28.94 A 2.084 2.084 0 0 1 132.262 28.94 A 2.124 2.124 0 0 1 131.636 28.856 Q 130.948 28.643 130.768 27.896 A 2.556 2.556 0 0 1 130.704 27.299 L 130.704 24.105 L 129.935 24.105 L 129.935 23.713 L 130.704 23.375 L 131.047 22.229 L 131.518 22.229 L 131.518 23.473 L 133.075 23.473 L 133.075 24.105 L 131.518 24.105 L 131.518 27.265 A 1.637 1.637 0 0 0 131.541 27.552 Q 131.591 27.833 131.748 28.009 A 0.755 0.755 0 0 0 132.212 28.256 A 1.087 1.087 0 0 0 132.38 28.269 Q 132.595 28.269 132.796 28.237 A 4.399 4.399 0 0 0 132.913 28.217 Q 133.026 28.196 133.104 28.174 A 1.219 1.219 0 0 0 133.114 28.171 Z M 125.604 26.97 A 4.2 4.2 0 0 0 125.679 26.153 A 4.773 4.773 0 0 0 125.677 26.024 Q 125.665 25.577 125.568 25.197 A 2.532 2.532 0 0 0 125.015 24.125 A 2.129 2.129 0 0 0 124.027 23.487 A 2.732 2.732 0 0 0 123.224 23.375 A 3.158 3.158 0 0 0 122.657 23.424 A 2.151 2.151 0 0 0 121.402 24.108 A 2.246 2.246 0 0 0 121.126 24.49 Q 120.914 24.861 120.82 25.336 A 4.222 4.222 0 0 0 120.746 26.153 A 4.068 4.068 0 0 0 120.797 26.812 A 3.008 3.008 0 0 0 121.05 27.632 A 2.673 2.673 0 0 0 121.109 27.748 A 2.201 2.201 0 0 0 121.912 28.602 A 2.264 2.264 0 0 0 122.431 28.833 A 2.611 2.611 0 0 0 123.19 28.94 A 3.158 3.158 0 0 0 123.742 28.894 A 2.168 2.168 0 0 0 125.017 28.203 A 2.268 2.268 0 0 0 125.287 27.832 Q 125.508 27.455 125.604 26.97 Z M 138.746 26.97 A 4.2 4.2 0 0 0 138.821 26.153 A 4.773 4.773 0 0 0 138.819 26.024 Q 138.807 25.577 138.711 25.197 A 2.532 2.532 0 0 0 138.157 24.125 A 2.129 2.129 0 0 0 137.169 23.487 A 2.732 2.732 0 0 0 136.367 23.375 A 3.158 3.158 0 0 0 135.8 23.424 A 2.151 2.151 0 0 0 134.545 24.108 A 2.246 2.246 0 0 0 134.269 24.49 Q 134.056 24.861 133.962 25.336 A 4.222 4.222 0 0 0 133.888 26.153 A 4.068 4.068 0 0 0 133.939 26.812 A 3.008 3.008 0 0 0 134.192 27.632 A 2.673 2.673 0 0 0 134.251 27.748 A 2.201 2.201 0 0 0 135.054 28.602 A 2.264 2.264 0 0 0 135.574 28.833 A 2.611 2.611 0 0 0 136.333 28.94 A 3.158 3.158 0 0 0 136.884 28.894 A 2.168 2.168 0 0 0 138.16 28.203 A 2.268 2.268 0 0 0 138.43 27.832 Q 138.65 27.455 138.746 26.97 Z M 121.762 27.281 A 1.706 1.706 0 0 0 122 27.72 A 1.333 1.333 0 0 0 122.868 28.231 A 2.02 2.02 0 0 0 123.21 28.259 A 1.889 1.889 0 0 0 123.708 28.197 A 1.314 1.314 0 0 0 124.422 27.723 A 1.746 1.746 0 0 0 124.694 27.193 Q 124.774 26.949 124.809 26.65 A 4.283 4.283 0 0 0 124.836 26.153 A 4.057 4.057 0 0 0 124.798 25.574 Q 124.71 24.967 124.422 24.597 A 1.338 1.338 0 0 0 123.591 24.101 A 2.051 2.051 0 0 0 123.2 24.066 A 1.935 1.935 0 0 0 122.718 24.122 A 1.295 1.295 0 0 0 121.995 24.59 Q 121.588 25.114 121.588 26.153 Q 121.588 26.82 121.762 27.281 Z M 134.904 27.281 A 1.706 1.706 0 0 0 135.142 27.72 A 1.333 1.333 0 0 0 136.01 28.231 A 2.02 2.02 0 0 0 136.352 28.259 A 1.889 1.889 0 0 0 136.851 28.197 A 1.314 1.314 0 0 0 137.565 27.723 A 1.746 1.746 0 0 0 137.836 27.193 Q 137.916 26.949 137.951 26.65 A 4.283 4.283 0 0 0 137.979 26.153 A 4.057 4.057 0 0 0 137.94 25.574 Q 137.852 24.967 137.565 24.597 A 1.338 1.338 0 0 0 136.733 24.101 A 2.051 2.051 0 0 0 136.342 24.066 A 1.935 1.935 0 0 0 135.861 24.122 A 1.295 1.295 0 0 0 135.137 24.59 Q 134.731 25.114 134.731 26.153 Q 134.731 26.82 134.904 27.281 Z M 116.392 24.268 A 1.081 1.081 0 0 0 116.078 24.543 Q 115.71 25.021 115.71 26.153 Q 115.71 27.114 115.982 27.61 A 1.226 1.226 0 0 0 116.087 27.772 A 1.18 1.18 0 0 0 116.686 28.175 Q 116.953 28.259 117.297 28.259 Q 118.047 28.259 118.414 27.713 A 1.867 1.867 0 0 0 118.645 27.213 Q 118.782 26.767 118.782 26.143 Q 118.782 25.149 118.451 24.635 A 1.349 1.349 0 0 0 118.414 24.58 A 1.186 1.186 0 0 0 117.659 24.102 A 1.881 1.881 0 0 0 117.278 24.066 Q 116.736 24.066 116.392 24.268 Z" id="bottom_labelLayer" stroke="#000000" fill="#000000" style="stroke:#000000;fill:#000000" vector-effect="non-scaling-stroke"/></g></svg>